<svg xmlns="http://www.w3.org/2000/svg" viewBox="0 0 2233.77 447.35"><defs><style>.cls-1{fill:#fff;}.cls-2{fill:#41b48c;}</style></defs><g id="Camada_2" data-name="Camada 2"><g id="Camada_1-2" data-name="Camada 1"><path class="cls-1" d="M395,69.61a25.32,25.32,0,0,1-18.54-7.79q-7.78-7.78-7.79-18a25.34,25.34,0,0,1,7.79-18.54q7.78-7.79,18-7.79A25.78,25.78,0,0,1,413,25a24.48,24.48,0,0,1,7.79,18.27,25.78,25.78,0,0,1-7.52,18.54A24.48,24.48,0,0,1,395,69.61ZM373.53,359.18V123.07a21.22,21.22,0,0,1,21.22-21.22h0A21.22,21.22,0,0,1,416,123.07V359.21Z"/><path class="cls-1" d="M650.79,336.66q-15.59,26.88-65,26.87-48.9,0-74.69-34.12t-25.79-98.06q0-63.94,26.33-98.07t78.45-34.12q53.73,0,78.18,34.12t24.45,98.07v129q0,41.93-25.25,64.48T589,447.35q-21,0-37.08-4a162.28,162.28,0,0,1-26.86-8.86A114.13,114.13,0,0,1,502.49,421L517,387.71a138,138,0,0,0,20.41,11.82,176.37,176.37,0,0,0,22.84,8.06A104.55,104.55,0,0,0,589,411.35q32.76,0,47-14.24T650.79,356ZM589,328.6q19.88,0,32-8.33a54.23,54.23,0,0,0,18.54-22,101.91,101.91,0,0,0,8.59-31.16,292.8,292.8,0,0,0,2.15-35.73q0-17.74-1.34-35.2A92.89,92.89,0,0,0,641.39,165a52.36,52.36,0,0,0-18.27-22q-12.09-8.32-33-8.32-19.87,0-32.24,8.32a55.49,55.49,0,0,0-19.07,22,96.93,96.93,0,0,0-8.87,31.16,288.37,288.37,0,0,0-2.15,35.2,292.8,292.8,0,0,0,2.15,35.73,101.91,101.91,0,0,0,8.6,31.16,54.23,54.23,0,0,0,18.54,22Q569.12,328.61,589,328.6Z"/><path class="cls-1" d="M866.8,99.16a103.14,103.14,0,0,1,39,7.26,91.37,91.37,0,0,1,30.9,20.15,94.23,94.23,0,0,1,20.42,31.16,105,105,0,0,1,7.52,40.3V360.84h-43v-159q0-32.76-15.58-50t-41.91-17.19q-26.88,0-42.45,17.19t-15.58,50v159h-43V7.28h43V126a73.09,73.09,0,0,1,25.52-19.61Q846.92,99.16,866.8,99.16Z"/><path class="cls-1" d="M1279.75,193.73a80.94,80.94,0,0,1,27.94,15.32,66.9,66.9,0,0,1,18,25.25q6.45,15.31,6.45,37.35,0,42.45-30.89,67.43t-85.71,25q-38.16,0-64.48-8.06T1107,334l11.28-24.72q14,14,38.69,22t57.5,8.06q45.13,0,67.7-17.2t22.57-50.5q0-26.86-14.24-41.38T1243,212.54l-43-3.76q-44.61-3.75-68-24.72t-23.38-59.64a85.72,85.72,0,0,1,7.53-36.27,81.87,81.87,0,0,1,21.22-28.21q13.7-11.82,33.58-18.54T1215,34.68a218.74,218.74,0,0,1,54.27,6.45q25.26,6.45,39.77,15.58l-10.75,23.11q-14.51-10.2-36-15.85A185.64,185.64,0,0,0,1215,58.32q-38.68,0-58.83,18T1136,124.42q0,27.4,17.46,41.91t48.09,17.19l41.91,3.23A157.5,157.5,0,0,1,1279.75,193.73Z"/><path class="cls-1" d="M1478.83,364.07q-26.34,0-44.33-5.65t-29.28-15.85a59.76,59.76,0,0,1-16.39-24.18,88.43,88.43,0,0,1-5.11-30.62,86.23,86.23,0,0,1,5.11-30.36,58.18,58.18,0,0,1,16.39-23.65q11.28-9.93,29.28-15.31t44.33-5.37q15,0,29.29,1.34t25,3q12.9,2.16,24.18,3.77V191.58q0-68.24-79-68.24-21,0-35.19,4.84t-29.29,16.65l-10.74-23.64q12.35-9.12,32-15.58t43.79-6.45q51.59,0,78.72,22.84t27.13,66.36v79q0,32.77-10.2,52.12t-25.8,29.28a85.65,85.65,0,0,1-34.39,12.63A251.57,251.57,0,0,1,1478.83,364.07Zm78.45-122.51q-10.21-1.62-22.57-3.23-10.76-1.07-25-2.15t-30.9-1.07q-37.08,0-52.39,13.16t-15.31,39q0,52.66,67.7,52.66,41.91,0,60.18-16.66t18.27-52.66Z"/><path class="cls-1" d="M1696.45,366.75a52.19,52.19,0,0,1-25.8-23.37q-8.6-15.84-8.59-38.42V2.44h27.4v302q0,15.6,3.76,25.26a24.51,24.51,0,0,0,13.44,14Z"/><path class="cls-1" d="M1965.11,334.51a123.91,123.91,0,0,1-35.47,22q-18.81,7.53-46.74,7.53-53.75,0-81.68-33.86t-27.94-98.86q0-62.88,28.75-97.53t77.64-34.66q25.8,0,44.06,7t29.56,18a67.19,67.19,0,0,1,16.39,24.71,76.1,76.1,0,0,1,5.1,26.6,107.89,107.89,0,0,1-3.49,27.68A49.9,49.9,0,0,1,1958.12,226q-9.67,9.67-26.86,15.59t-45.14,5.91q-22.57,0-38.69-1.62t-26.86-3.76a102.7,102.7,0,0,1-20.42-5.37q0,49.44,21.76,76t62.6,26.6q22.56,0,38.15-6.72t31.16-22.3ZM1879.67,122.8q-20.43,0-34.92,7.53a70.09,70.09,0,0,0-24.18,20.42,90.9,90.9,0,0,0-14.51,29.55,139.35,139.35,0,0,0-5.38,34.93,190.13,190.13,0,0,0,22,4.83q10.76,1.62,26.33,3t36,1.34q19.86,0,32.5-3.49t19.35-9.94a32.85,32.85,0,0,0,9.13-15.59,77.52,77.52,0,0,0,2.42-19.88,58.44,58.44,0,0,0-3.22-19.07,41.43,41.43,0,0,0-11.29-16.93q-8.06-7.52-21.22-12.09T1879.67,122.8Z"/><path class="cls-1" d="M2188.1,224.63A63.09,63.09,0,0,1,2212,235.91a55.77,55.77,0,0,1,15.85,20.15q5.91,12.38,5.91,31.17,0,35.46-27.94,56.15t-75.76,20.69q-30.11,0-53.2-7.26A133.36,133.36,0,0,1,2035,335.05l11.28-24.72q30.09,29.57,82.75,29.56,38.15,0,58-13.17t19.88-39.49q0-20.42-11.83-30.63t-37.61-12.9L2115,239.94q-77.91-6.45-77.91-67.7,0-33.86,25.25-53.47t67.71-19.61a174.65,174.65,0,0,1,43.52,5.38,138.47,138.47,0,0,1,37.08,15l-10.75,23.11q-29.55-20.41-69.85-20.42-32.25,0-49.17,12.89T2064,172.24q0,20.43,12.62,30.63t40,12.89l41.38,3.76A211.07,211.07,0,0,1,2188.1,224.63Z"/><rect class="cls-1" x="263.7" width="39.17" height="362.06"/><rect class="cls-1" width="39.17" height="362.06"/><path class="cls-2" d="M70.39,227.59H68.53a11.22,11.22,0,0,0-11.22,11.22v65h24.3v-65A11.22,11.22,0,0,0,70.39,227.59Z"/><rect class="cls-2" x="57.31" y="192.12" width="24.3" height="25.94" rx="11.22"/><rect class="cls-2" x="97.05" y="144.48" width="24.3" height="25.94" rx="11.22"/><path class="cls-2" d="M110.13,180h-1.86a11.22,11.22,0,0,0-11.22,11.22v84.06h24.3V191.17A11.22,11.22,0,0,0,110.13,180Z"/><rect class="cls-2" x="136.79" y="173.06" width="24.3" height="25.94" rx="11.22"/><path class="cls-2" d="M149.87,208.53H148a11.22,11.22,0,0,0-11.22,11.22v84.06h24.3V219.75A11.22,11.22,0,0,0,149.87,208.53Z"/><rect class="cls-2" x="176.53" y="115.9" width="24.3" height="25.94" rx="11.22"/><path class="cls-2" d="M190.77,151.36h-1.86a11.22,11.22,0,0,0-11.22,11.23V284.75H202V162.59A11.22,11.22,0,0,0,190.77,151.36Z"/><rect class="cls-2" x="217.43" y="8.44" width="24.3" height="25.94" rx="11.22"/><path class="cls-2" d="M230.51,46.55h-1.86a11.22,11.22,0,0,0-11.22,11.23V246.64h24.3V57.78A11.22,11.22,0,0,0,230.51,46.55Z"/></g></g></svg>